#!OML:ASF H:\Punching\Project 1\Capture day 1\Session 1\female.ASF
:FULLY-SPECIFIED
:DEGREES
845
root 0.351691 12.3697 0.28404 18.0564 8.76111 3.5926
lowerback 16.6962 5.43437 -0.625493
upperback -1.75896 6.8364 -2.46672
thorax -11.0555 3.17691 -4.11099
lowerneck -13.922 -6.84156 2.43592
upperneck 17.0409 -11.2674 7.22021
head 7.881 -4.47608 0.74806
rclavicle -1.49089e-014 -2.22639e-014
rhumerus 56.0809 -7.33222 -75.0923
rradius 28.637
rwrist -1.28189
rhand -20.4616 -18.6891
rfingers 7.12502
rthumb 5.89419 -48.5871
lclavicle -1.49089e-014 -2.22639e-014
lhumerus 30.4801 -42.4598 72.3261
lradius 133.913
lwrist 12.0527
lhand -22.4291 9.19946
lfingers 7.12502
lthumb 3.99445 39.1418
rfemur -25.5891 -35.8502 -7.1863
rtibia 85.1443
rfoot -34.0599 -3.90198
rtoes -36.0607
lfemur -79.4677 -3.13106 -16.7264
ltibia 73.1059
lfoot -11.7099 -3.36794
ltoes -7.69837
846
root 0.341154 12.3686 0.268796 18.1381 8.68888 3.69846
lowerback 16.773 5.33222 -0.68085
upperback -1.80644 6.6795 -2.53663
thorax -11.1592 3.09983 -4.13032
lowerneck -13.9587 -6.73557 2.59927
upperneck 17.0669 -11.1723 7.27059
head 7.88908 -4.41318 0.748008
rclavicle 6.95746e-014 -1.90833e-014
rhumerus 55.8012 -7.33895 -75.1432
rradius 29.4058
rwrist -1.38972
rhand -20.9325 -18.3232
rfingers 7.12502
rthumb 5.43951 -48.2334
lclavicle 6.95746e-014 -1.90833e-014
lhumerus 30.4573 -42.5957 72.3496
lradius 133.851
lwrist 11.8285
lhand -22.3484 9.162
lfingers 7.12502
lthumb 4.07235 39.1028
rfemur -25.8434 -35.948 -7.16592
rtibia 85.2715
rfoot -34.1846 -4.00519
rtoes -36.0485
lfemur -79.5418 -3.12191 -16.7902
ltibia 72.9769
lfoot -11.4961 -3.24527
ltoes -7.72384
847
root 0.332735 12.371 0.255454 18.2336 8.54549 3.75921
lowerback 16.7821 5.19607 -0.810934
upperback -1.85216 6.46828 -2.55923
thorax -11.2392 3.00456 -4.03478
lowerneck -13.9674 -6.56452 2.80381
upperneck 17.0961 -10.9843 7.26338
head 7.88498 -4.31034 0.734436
rclavicle 2.78299e-014 -3.89618e-014
rhumerus 54.8326 -6.64423 -74.2724
rradius 31.8388
rwrist -2.89208
rhand -20.9761 -18.533
rfingers 7.12502
rthumb 5.39745 -48.4443
lclavicle 2.78299e-014 -3.89618e-014
lhumerus 30.3513 -42.684 72.4662
lradius 133.809
lwrist 11.6637
lhand -22.2677 9.11644
lfingers 7.12502
lthumb 4.15029 39.0558
rfemur -26.1531 -35.9648 -7.06148
rtibia 85.3322
rfoot -34.2926 -4.12082
rtoes -36.0319
lfemur -79.6093 -3.07622 -16.7942
ltibia 72.8513
lfoot -11.3165 -3.07439
ltoes -7.78608
848
root 0.327012 12.377 0.243691 18.3306 8.3173 3.75822
lowerback 16.7239 5.0256 -1.00553
upperback -1.88768 6.20577 -2.5247
thorax -11.2841 2.89273 -3.81932
lowerneck -13.962 -6.32442 3.04944
upperneck 17.151 -10.6964 7.17503
head 7.87762 -4.16491 0.699524
rclavicle -4.47266e-014 -8.74653e-015
rhumerus 53.4251 -5.46079 -73.0374
rradius 35.5973
rwrist -5.36098
rhand -20.6006 -19.0614
rfingers 7.12502
rthumb 5.76001 -48.9631
lclavicle -4.47266e-014 -8.74653e-015
lhumerus 30.1637 -42.6871 72.6677
lradius 133.79
lwrist 11.5721
lhand -22.202 9.07133
lfingers 7.12502
lthumb 4.21372 39.0094
rfemur -26.5134 -35.8696 -6.86054
rtibia 85.3141
rfoot -34.3833 -4.24567
rtoes -36.0265
lfemur -79.6631 -2.98377 -16.7216
ltibia 72.7385
lfoot -11.1711 -2.84827
ltoes -7.86456
849
root 0.324505 12.3868 0.233584 18.4158 7.99279 3.68066
lowerback 16.6153 4.82854 -1.23032
upperback -1.9117 5.90872 -2.43973
thorax -11.2947 2.76971 -3.51668
lowerneck -13.9463 -6.0199 3.35004
upperneck 17.237 -10.314 6.98244
head 7.86847 -3.98034 0.632522
rclavicle 7.43455e-014 -1.27222e-014
rhumerus 51.7515 -3.9675 -71.7883
rradius 40.426
rwrist -8.59632
rhand -20.0732 -19.7127
rfingers 7.12502
rthumb 6.2691 -49.6
lclavicle 7.43455e-014 -1.27222e-014
lhumerus 29.9036 -42.5994 72.935
lradius 133.798
lwrist 11.576
lhand -22.1454 9.02055
lfingers 7.12502
lthumb 4.2684 38.9575
rfemur -26.908 -35.637 -6.55583
rtibia 85.2021
rfoot -34.4625 -4.38792
rtoes -36.0512
lfemur -79.6908 -2.83427 -16.5582
ltibia 72.6473
lfoot -11.0662 -2.57449
ltoes -7.92273
850
root 0.325779 12.4003 0.225118 18.4818 7.56166 3.52983
lowerback 16.4733 4.61271 -1.46157
upperback -1.92048 5.59128 -2.3143
thorax -11.2708 2.64001 -3.15669
lowerneck -13.9328 -5.66023 3.68849
upperneck 17.3559 -9.84791 6.69017
head 7.86331 -3.76195 0.535505
rclavicle 1.59028e-014 -1.23246e-014
rhumerus 49.9394 -2.30925 -70.7631
rradius 46.0972
rwrist -12.4286
rhand -19.746 -20.3556
rfingers 7.12502
rthumb 6.58504 -50.2332
lclavicle 1.59028e-014 -1.23246e-014
lhumerus 29.5922 -42.4176 73.2485
lradius 133.823
lwrist 11.6765
lhand -22.1208 8.96076
lfingers 7.12502
lthumb 4.29216 38.8973
rfemur -27.322 -35.2627 -6.1654
rtibia 84.987
rfoot -34.5357 -4.544
rtoes -36.1158
lfemur -79.6796 -2.62709 -16.3076
ltibia 72.5823
lfoot -11.009 -2.2559
ltoes -7.95115
851
root 0.330992 12.4176 0.218494 18.5212 7.01847 3.30995
lowerback 16.3106 4.38852 -1.67142
upperback -1.902 5.2715 -2.16164
thorax -11.2005 2.50975 -2.77508
lowerneck -13.9525 -5.25874 4.03482
upperneck 17.5037 -9.31729 6.3262
head 7.8714 -3.51738 0.418895
rclavicle 3.26007e-014 1.23246e-014
rhumerus 48.0643 -0.569904 -69.9692
rradius 52.4128
rwrist -16.7774
rhand -19.8791 -21.0464
rfingers 7.12502
rthumb 6.45654 -50.928
lclavicle 3.26007e-014 1.23246e-014
lhumerus 29.2829 -42.1524 73.5705
lradius 133.862
lwrist 11.8813
lhand -22.1232 8.91302
lfingers 7.12502
lthumb 4.28977 38.8496
rfemur -27.7352 -34.7504 -5.70561
rtibia 84.6606
rfoot -34.6081 -4.71341
rtoes -36.2229
lfemur -79.6137 -2.36172 -15.9738
ltibia 72.5441
lfoot -11.0101 -1.89971
ltoes -7.93125
852
root 0.340358 12.4388 0.214563 18.5299 6.35964 3.04073
lowerback 16.1357 4.1647 -1.85316
upperback -1.85166 4.96055 -1.99674
thorax -11.0813 2.38273 -2.39611
lowerneck -14.0144 -4.82547 4.37317
upperneck 17.6729 -8.73688 5.91303
head 7.89529 -3.25278 0.290705
rclavicle 3.93594e-014 -1.74931e-014
rhumerus 46.1592 1.17011 -69.3934
rradius 59.1345
rwrist -21.409
rhand -20.5248 -21.7791
rfingers 7.12502
rthumb 5.83311 -51.6788
lclavicle 3.93594e-014 -1.74931e-014
lhumerus 29.0005 -41.8242 73.8833
lradius 133.906
lwrist 12.1765
lhand -22.1652 8.84831
lfingers 7.12502
lthumb 4.24927 38.7857
rfemur -28.1181 -34.1188 -5.21682
rtibia 84.2179
rfoot -34.6879 -4.89434
rtoes -36.3823
lfemur -79.4734 -2.04379 -15.58
ltibia 72.5307
lfoot -11.0841 -1.51176
ltoes -7.84167
